<mxfile host="app.diagrams.net" modified="2021-05-30T06:31:01.017Z" agent="5.0 (Windows NT 10.0; WOW64) AppleWebKit/537.36 (KHTML, like Gecko) Chrome/72.0.3626.81 Safari/537.36 SE 2.X MetaSr 1.0" etag="zM7j5T9ikH4vUbvHfgo-" version="14.7.3" type="github">
  <diagram id="KCBTRoaTTA7cvP2xxp_u" name="Page-1">
    <mxGraphModel dx="1073" dy="601" grid="1" gridSize="10" guides="1" tooltips="1" connect="1" arrows="1" fold="1" page="1" pageScale="1" pageWidth="827" pageHeight="1169" math="0" shadow="0">
      <root>
        <mxCell id="0" />
        <mxCell id="1" parent="0" />
        <mxCell id="2uwaL5iHGOq5MJVvKIWi-41" value="&lt;font style=&quot;font-size: 24px&quot;&gt;%rax&lt;/font&gt;" style="rounded=0;whiteSpace=wrap;html=1;startSize=0;" parent="1" vertex="1">
          <mxGeometry x="145" y="40" width="105" height="51" as="geometry" />
        </mxCell>
        <mxCell id="2uwaL5iHGOq5MJVvKIWi-42" value="&lt;font style=&quot;font-size: 24px&quot;&gt;%rbx&lt;/font&gt;" style="rounded=0;whiteSpace=wrap;html=1;startSize=0;" parent="1" vertex="1">
          <mxGeometry x="40" y="40" width="105" height="51" as="geometry" />
        </mxCell>
        <mxCell id="2uwaL5iHGOq5MJVvKIWi-43" value="&lt;font style=&quot;font-size: 24px&quot;&gt;%rdx&lt;/font&gt;" style="rounded=0;whiteSpace=wrap;html=1;startSize=0;" parent="1" vertex="1">
          <mxGeometry x="250" y="40" width="105" height="51" as="geometry" />
        </mxCell>
        <mxCell id="2uwaL5iHGOq5MJVvKIWi-44" value="&lt;font style=&quot;font-size: 24px&quot;&gt;%rcx&lt;/font&gt;" style="rounded=0;whiteSpace=wrap;html=1;startSize=0;" parent="1" vertex="1">
          <mxGeometry x="355" y="40" width="105" height="51" as="geometry" />
        </mxCell>
        <mxCell id="2uwaL5iHGOq5MJVvKIWi-45" value="&lt;font style=&quot;font-size: 24px&quot;&gt;%xmm1&lt;/font&gt;" style="rounded=0;whiteSpace=wrap;html=1;startSize=0;" parent="1" vertex="1">
          <mxGeometry x="460" y="40" width="105" height="51" as="geometry" />
        </mxCell>
        <mxCell id="2uwaL5iHGOq5MJVvKIWi-47" value="&lt;font style=&quot;font-size: 24px&quot;&gt;%rax&lt;/font&gt;" style="rounded=0;whiteSpace=wrap;html=1;startSize=0;" parent="1" vertex="1">
          <mxGeometry x="145" y="470" width="105" height="51" as="geometry" />
        </mxCell>
        <mxCell id="2uwaL5iHGOq5MJVvKIWi-48" value="&lt;font style=&quot;font-size: 24px&quot;&gt;%rbx&lt;/font&gt;" style="rounded=0;whiteSpace=wrap;html=1;startSize=0;" parent="1" vertex="1">
          <mxGeometry x="40" y="470" width="105" height="51" as="geometry" />
        </mxCell>
        <mxCell id="2uwaL5iHGOq5MJVvKIWi-49" value="&lt;font style=&quot;font-size: 24px&quot;&gt;%rdx&lt;/font&gt;" style="rounded=0;whiteSpace=wrap;html=1;startSize=0;" parent="1" vertex="1">
          <mxGeometry x="250" y="470" width="105" height="51" as="geometry" />
        </mxCell>
        <mxCell id="2uwaL5iHGOq5MJVvKIWi-50" value="&lt;font style=&quot;font-size: 24px&quot;&gt;%rcx&lt;/font&gt;" style="rounded=0;whiteSpace=wrap;html=1;startSize=0;" parent="1" vertex="1">
          <mxGeometry x="355" y="470" width="105" height="51" as="geometry" />
        </mxCell>
        <mxCell id="2uwaL5iHGOq5MJVvKIWi-51" value="&lt;font style=&quot;font-size: 24px&quot;&gt;%xmm1&lt;/font&gt;" style="rounded=0;whiteSpace=wrap;html=1;startSize=0;" parent="1" vertex="1">
          <mxGeometry x="460" y="470" width="105" height="51" as="geometry" />
        </mxCell>
        <mxCell id="2uwaL5iHGOq5MJVvKIWi-53" value="" style="endArrow=classic;html=1;startSize=0;" parent="1" edge="1">
          <mxGeometry width="50" height="50" relative="1" as="geometry">
            <mxPoint x="91.91000000000003" y="100" as="sourcePoint" />
            <mxPoint x="92" y="460" as="targetPoint" />
          </mxGeometry>
        </mxCell>
        <mxCell id="2uwaL5iHGOq5MJVvKIWi-54" value="" style="endArrow=classic;html=1;startSize=0;" parent="1" edge="1">
          <mxGeometry width="50" height="50" relative="1" as="geometry">
            <mxPoint x="200" y="100" as="sourcePoint" />
            <mxPoint x="200" y="460" as="targetPoint" />
          </mxGeometry>
        </mxCell>
        <mxCell id="2uwaL5iHGOq5MJVvKIWi-55" value="" style="endArrow=classic;html=1;startSize=0;exitX=0.382;exitY=0.502;exitDx=0;exitDy=0;exitPerimeter=0;" parent="1" source="2uwaL5iHGOq5MJVvKIWi-56" edge="1">
          <mxGeometry width="50" height="50" relative="1" as="geometry">
            <mxPoint x="530" y="140" as="sourcePoint" />
            <mxPoint x="580" y="140" as="targetPoint" />
            <Array as="points" />
          </mxGeometry>
        </mxCell>
        <mxCell id="2uwaL5iHGOq5MJVvKIWi-56" value="" style="shape=waypoint;sketch=0;size=6;pointerEvents=1;points=[];fillColor=none;resizable=0;rotatable=0;perimeter=centerPerimeter;snapToPoint=1;startSize=0;html=1;" parent="1" vertex="1">
          <mxGeometry x="72.5" y="120" width="40" height="40" as="geometry" />
        </mxCell>
        <mxCell id="2uwaL5iHGOq5MJVvKIWi-57" value="load" style="shape=ext;double=1;rounded=1;whiteSpace=wrap;html=1;startSize=0;" parent="1" vertex="1">
          <mxGeometry x="600" y="130" width="80" height="40" as="geometry" />
        </mxCell>
        <mxCell id="2uwaL5iHGOq5MJVvKIWi-58" value="load" style="shape=ext;double=1;rounded=1;whiteSpace=wrap;html=1;startSize=0;" parent="1" vertex="1">
          <mxGeometry x="600" y="170" width="80" height="40" as="geometry" />
        </mxCell>
        <mxCell id="2uwaL5iHGOq5MJVvKIWi-59" value="" style="endArrow=classic;html=1;startSize=0;" parent="1" edge="1">
          <mxGeometry width="50" height="50" relative="1" as="geometry">
            <mxPoint x="302" y="100" as="sourcePoint" />
            <mxPoint x="580" y="300" as="targetPoint" />
            <Array as="points">
              <mxPoint x="302" y="300" />
            </Array>
          </mxGeometry>
        </mxCell>
        <mxCell id="2uwaL5iHGOq5MJVvKIWi-60" value="" style="endArrow=classic;html=1;startSize=0;startArrow=none;" parent="1" source="2uwaL5iHGOq5MJVvKIWi-61" edge="1">
          <mxGeometry width="50" height="50" relative="1" as="geometry">
            <mxPoint x="300" y="160" as="sourcePoint" />
            <mxPoint x="580" y="160" as="targetPoint" />
          </mxGeometry>
        </mxCell>
        <mxCell id="2uwaL5iHGOq5MJVvKIWi-61" value="" style="shape=waypoint;sketch=0;size=6;pointerEvents=1;points=[];fillColor=none;resizable=0;rotatable=0;perimeter=centerPerimeter;snapToPoint=1;startSize=0;html=1;" parent="1" vertex="1">
          <mxGeometry x="282.5" y="140" width="40" height="40" as="geometry" />
        </mxCell>
        <mxCell id="2uwaL5iHGOq5MJVvKIWi-62" value="" style="endArrow=none;html=1;startSize=0;exitX=0.367;exitY=0.468;exitDx=0;exitDy=0;exitPerimeter=0;" parent="1" source="2uwaL5iHGOq5MJVvKIWi-61" target="2uwaL5iHGOq5MJVvKIWi-61" edge="1">
          <mxGeometry width="50" height="50" relative="1" as="geometry">
            <mxPoint x="300" y="160" as="sourcePoint" />
            <mxPoint x="579.9999999999998" y="160" as="targetPoint" />
          </mxGeometry>
        </mxCell>
        <mxCell id="2uwaL5iHGOq5MJVvKIWi-64" value="mul" style="shape=ext;double=1;rounded=1;whiteSpace=wrap;html=1;startSize=0;" parent="1" vertex="1">
          <mxGeometry x="600" y="210" width="80" height="40" as="geometry" />
        </mxCell>
        <mxCell id="2uwaL5iHGOq5MJVvKIWi-65" value="add" style="shape=ext;double=1;rounded=1;whiteSpace=wrap;html=1;startSize=0;" parent="1" vertex="1">
          <mxGeometry x="472.5" y="810" width="80" height="40" as="geometry" />
        </mxCell>
        <mxCell id="2uwaL5iHGOq5MJVvKIWi-68" value="" style="endArrow=classic;html=1;startSize=0;" parent="1" edge="1">
          <mxGeometry width="50" height="50" relative="1" as="geometry">
            <mxPoint x="90" y="180" as="sourcePoint" />
            <mxPoint x="580" y="180" as="targetPoint" />
          </mxGeometry>
        </mxCell>
        <mxCell id="2uwaL5iHGOq5MJVvKIWi-69" value="" style="endArrow=classic;html=1;startSize=0;startArrow=none;" parent="1" edge="1" source="cS52obOLXvUobMIQ5ZyY-22">
          <mxGeometry width="50" height="50" relative="1" as="geometry">
            <mxPoint x="300" y="200" as="sourcePoint" />
            <mxPoint x="580" y="200" as="targetPoint" />
          </mxGeometry>
        </mxCell>
        <mxCell id="2uwaL5iHGOq5MJVvKIWi-71" value="" style="edgeStyle=elbowEdgeStyle;elbow=vertical;endArrow=classic;html=1;startSize=0;" parent="1" edge="1">
          <mxGeometry width="50" height="50" relative="1" as="geometry">
            <mxPoint x="510" y="100" as="sourcePoint" />
            <mxPoint x="580" y="270" as="targetPoint" />
            <Array as="points">
              <mxPoint x="510" y="270" />
            </Array>
          </mxGeometry>
        </mxCell>
        <mxCell id="2uwaL5iHGOq5MJVvKIWi-72" value="" style="edgeStyle=elbowEdgeStyle;elbow=vertical;endArrow=classic;html=1;startSize=0;" parent="1" edge="1">
          <mxGeometry width="50" height="50" relative="1" as="geometry">
            <mxPoint x="580" y="280" as="sourcePoint" />
            <mxPoint x="510" y="460" as="targetPoint" />
            <Array as="points">
              <mxPoint x="510" y="280" />
            </Array>
          </mxGeometry>
        </mxCell>
        <mxCell id="2uwaL5iHGOq5MJVvKIWi-73" value="add" style="shape=ext;double=1;rounded=1;whiteSpace=wrap;html=1;startSize=0;" parent="1" vertex="1">
          <mxGeometry x="600" y="290" width="80" height="40" as="geometry" />
        </mxCell>
        <mxCell id="2uwaL5iHGOq5MJVvKIWi-74" value="" style="endArrow=classic;html=1;startSize=0;" parent="1" edge="1">
          <mxGeometry width="50" height="50" relative="1" as="geometry">
            <mxPoint x="580" y="230" as="sourcePoint" />
            <mxPoint x="580" y="260" as="targetPoint" />
            <Array as="points">
              <mxPoint x="530" y="230" />
              <mxPoint x="530" y="260" />
            </Array>
          </mxGeometry>
        </mxCell>
        <mxCell id="2uwaL5iHGOq5MJVvKIWi-75" value="" style="edgeStyle=segmentEdgeStyle;endArrow=classic;html=1;startSize=0;" parent="1" edge="1">
          <mxGeometry width="50" height="50" relative="1" as="geometry">
            <mxPoint x="690" y="150" as="sourcePoint" />
            <mxPoint x="690" y="240" as="targetPoint" />
            <Array as="points">
              <mxPoint x="760" y="150" />
              <mxPoint x="760" y="240" />
              <mxPoint x="690" y="240" />
            </Array>
          </mxGeometry>
        </mxCell>
        <mxCell id="2uwaL5iHGOq5MJVvKIWi-79" value="" style="endArrow=classic;html=1;startSize=0;" parent="1" edge="1">
          <mxGeometry width="50" height="50" relative="1" as="geometry">
            <mxPoint x="690" y="190" as="sourcePoint" />
            <mxPoint x="690" y="220" as="targetPoint" />
            <Array as="points">
              <mxPoint x="740" y="190" />
              <mxPoint x="740" y="220" />
            </Array>
          </mxGeometry>
        </mxCell>
        <mxCell id="2uwaL5iHGOq5MJVvKIWi-80" value="cmp" style="shape=ext;double=1;rounded=1;whiteSpace=wrap;html=1;startSize=0;" parent="1" vertex="1">
          <mxGeometry x="600" y="330" width="80" height="40" as="geometry" />
        </mxCell>
        <mxCell id="2uwaL5iHGOq5MJVvKIWi-81" value="" style="endArrow=classic;html=1;startSize=0;" parent="1" edge="1">
          <mxGeometry width="50" height="50" relative="1" as="geometry">
            <mxPoint x="580" y="320" as="sourcePoint" />
            <mxPoint x="300" y="460" as="targetPoint" />
            <Array as="points">
              <mxPoint x="300" y="320" />
            </Array>
          </mxGeometry>
        </mxCell>
        <mxCell id="2uwaL5iHGOq5MJVvKIWi-82" value="jg" style="shape=ext;double=1;rounded=1;whiteSpace=wrap;html=1;startSize=0;" parent="1" vertex="1">
          <mxGeometry x="600" y="370" width="80" height="40" as="geometry" />
        </mxCell>
        <mxCell id="2uwaL5iHGOq5MJVvKIWi-83" value="" style="endArrow=classic;html=1;startSize=0;" parent="1" edge="1">
          <mxGeometry width="50" height="50" relative="1" as="geometry">
            <mxPoint x="300" y="340" as="sourcePoint" />
            <mxPoint x="580" y="340" as="targetPoint" />
          </mxGeometry>
        </mxCell>
        <mxCell id="2uwaL5iHGOq5MJVvKIWi-84" value="" style="endArrow=classic;html=1;startSize=0;" parent="1" edge="1">
          <mxGeometry width="50" height="50" relative="1" as="geometry">
            <mxPoint x="400" y="100" as="sourcePoint" />
            <mxPoint x="400" y="460" as="targetPoint" />
          </mxGeometry>
        </mxCell>
        <mxCell id="2uwaL5iHGOq5MJVvKIWi-85" value="" style="endArrow=classic;html=1;startSize=0;startArrow=none;" parent="1" edge="1" source="cS52obOLXvUobMIQ5ZyY-25">
          <mxGeometry width="50" height="50" relative="1" as="geometry">
            <mxPoint x="400" y="360" as="sourcePoint" />
            <mxPoint x="580" y="360" as="targetPoint" />
          </mxGeometry>
        </mxCell>
        <mxCell id="2uwaL5iHGOq5MJVvKIWi-86" value="" style="curved=1;endArrow=classic;html=1;startSize=0;" parent="1" edge="1">
          <mxGeometry width="50" height="50" relative="1" as="geometry">
            <mxPoint x="690" y="350" as="sourcePoint" />
            <mxPoint x="690" y="390" as="targetPoint" />
            <Array as="points">
              <mxPoint x="720" y="350" />
              <mxPoint x="720" y="380" />
            </Array>
          </mxGeometry>
        </mxCell>
        <mxCell id="cS52obOLXvUobMIQ5ZyY-1" value="&lt;font style=&quot;font-size: 24px&quot;&gt;%xmm1&lt;/font&gt;" style="rounded=0;whiteSpace=wrap;html=1;startSize=0;" vertex="1" parent="1">
          <mxGeometry x="40" y="585" width="105" height="51" as="geometry" />
        </mxCell>
        <mxCell id="cS52obOLXvUobMIQ5ZyY-2" value="&lt;font style=&quot;font-size: 24px&quot;&gt;%rdx&lt;/font&gt;" style="rounded=0;whiteSpace=wrap;html=1;startSize=0;" vertex="1" parent="1">
          <mxGeometry x="460" y="585" width="105" height="51" as="geometry" />
        </mxCell>
        <mxCell id="cS52obOLXvUobMIQ5ZyY-3" value="" style="endArrow=classic;html=1;startSize=0;startArrow=none;" edge="1" parent="1" source="cS52obOLXvUobMIQ5ZyY-27">
          <mxGeometry width="50" height="50" relative="1" as="geometry">
            <mxPoint x="510" y="650" as="sourcePoint" />
            <mxPoint x="510" y="800" as="targetPoint" />
          </mxGeometry>
        </mxCell>
        <mxCell id="cS52obOLXvUobMIQ5ZyY-4" value="" style="endArrow=classic;html=1;startSize=0;" edge="1" parent="1">
          <mxGeometry width="50" height="50" relative="1" as="geometry">
            <mxPoint x="511.79" y="870" as="sourcePoint" />
            <mxPoint x="512" y="930" as="targetPoint" />
          </mxGeometry>
        </mxCell>
        <mxCell id="cS52obOLXvUobMIQ5ZyY-5" value="load" style="shape=ext;double=1;rounded=1;whiteSpace=wrap;html=1;startSize=0;" vertex="1" parent="1">
          <mxGeometry x="300" y="670" width="80" height="40" as="geometry" />
        </mxCell>
        <mxCell id="cS52obOLXvUobMIQ5ZyY-6" value="load" style="shape=ext;double=1;rounded=1;whiteSpace=wrap;html=1;startSize=0;" vertex="1" parent="1">
          <mxGeometry x="300" y="710" width="80" height="40" as="geometry" />
        </mxCell>
        <mxCell id="cS52obOLXvUobMIQ5ZyY-7" value="" style="endArrow=classic;html=1;startSize=0;" edge="1" parent="1">
          <mxGeometry width="50" height="50" relative="1" as="geometry">
            <mxPoint x="510" y="690" as="sourcePoint" />
            <mxPoint x="390" y="690" as="targetPoint" />
          </mxGeometry>
        </mxCell>
        <mxCell id="cS52obOLXvUobMIQ5ZyY-8" value="" style="endArrow=classic;html=1;startSize=0;" edge="1" parent="1">
          <mxGeometry width="50" height="50" relative="1" as="geometry">
            <mxPoint x="510" y="729" as="sourcePoint" />
            <mxPoint x="390" y="729" as="targetPoint" />
          </mxGeometry>
        </mxCell>
        <mxCell id="cS52obOLXvUobMIQ5ZyY-9" value="add" style="shape=ext;double=1;rounded=1;whiteSpace=wrap;html=1;startSize=0;" vertex="1" parent="1">
          <mxGeometry x="52.5" y="790" width="80" height="40" as="geometry" />
        </mxCell>
        <mxCell id="cS52obOLXvUobMIQ5ZyY-10" value="" style="endArrow=classic;html=1;startSize=0;" edge="1" parent="1">
          <mxGeometry width="50" height="50" relative="1" as="geometry">
            <mxPoint x="91.78999999999999" y="650" as="sourcePoint" />
            <mxPoint x="92" y="780" as="targetPoint" />
          </mxGeometry>
        </mxCell>
        <mxCell id="cS52obOLXvUobMIQ5ZyY-12" value="" style="edgeStyle=elbowEdgeStyle;elbow=horizontal;endArrow=classic;html=1;startSize=0;" edge="1" parent="1">
          <mxGeometry width="50" height="50" relative="1" as="geometry">
            <mxPoint x="280" y="690" as="sourcePoint" />
            <mxPoint x="220" y="780" as="targetPoint" />
            <Array as="points">
              <mxPoint x="220" y="740" />
            </Array>
          </mxGeometry>
        </mxCell>
        <mxCell id="cS52obOLXvUobMIQ5ZyY-13" value="" style="edgeStyle=elbowEdgeStyle;elbow=horizontal;endArrow=classic;html=1;startSize=0;" edge="1" parent="1">
          <mxGeometry width="50" height="50" relative="1" as="geometry">
            <mxPoint x="280" y="730" as="sourcePoint" />
            <mxPoint x="240" y="780" as="targetPoint" />
            <Array as="points">
              <mxPoint x="240" y="730" />
            </Array>
          </mxGeometry>
        </mxCell>
        <mxCell id="cS52obOLXvUobMIQ5ZyY-15" value="add" style="shape=ext;double=1;rounded=1;whiteSpace=wrap;html=1;startSize=0;" vertex="1" parent="1">
          <mxGeometry x="600" y="250" width="80" height="40" as="geometry" />
        </mxCell>
        <mxCell id="cS52obOLXvUobMIQ5ZyY-16" value="&lt;font style=&quot;font-size: 24px&quot;&gt;%rdx&lt;/font&gt;" style="rounded=0;whiteSpace=wrap;html=1;startSize=0;" vertex="1" parent="1">
          <mxGeometry x="460" y="940" width="105" height="51" as="geometry" />
        </mxCell>
        <mxCell id="cS52obOLXvUobMIQ5ZyY-17" value="&lt;font style=&quot;font-size: 24px&quot;&gt;%xmm1&lt;/font&gt;" style="rounded=0;whiteSpace=wrap;html=1;startSize=0;" vertex="1" parent="1">
          <mxGeometry x="40" y="940" width="105" height="51" as="geometry" />
        </mxCell>
        <mxCell id="cS52obOLXvUobMIQ5ZyY-18" value="" style="endArrow=classic;html=1;startSize=0;" edge="1" parent="1">
          <mxGeometry width="50" height="50" relative="1" as="geometry">
            <mxPoint x="90" y="840" as="sourcePoint" />
            <mxPoint x="90" y="930" as="targetPoint" />
          </mxGeometry>
        </mxCell>
        <mxCell id="cS52obOLXvUobMIQ5ZyY-19" value="mul" style="shape=ext;double=1;rounded=1;whiteSpace=wrap;html=1;startSize=0;arcSize=22;" vertex="1" parent="1">
          <mxGeometry x="190" y="790" width="80" height="40" as="geometry" />
        </mxCell>
        <mxCell id="cS52obOLXvUobMIQ5ZyY-20" value="" style="endArrow=classic;html=1;startSize=0;" edge="1" parent="1">
          <mxGeometry width="50" height="50" relative="1" as="geometry">
            <mxPoint x="180" y="810" as="sourcePoint" />
            <mxPoint x="140" y="810" as="targetPoint" />
          </mxGeometry>
        </mxCell>
        <mxCell id="cS52obOLXvUobMIQ5ZyY-21" value="" style="shape=waypoint;sketch=0;size=6;pointerEvents=1;points=[];fillColor=none;resizable=0;rotatable=0;perimeter=centerPerimeter;snapToPoint=1;startSize=0;html=1;" vertex="1" parent="1">
          <mxGeometry x="72.5" y="160" width="40" height="40" as="geometry" />
        </mxCell>
        <mxCell id="cS52obOLXvUobMIQ5ZyY-22" value="" style="shape=waypoint;sketch=0;size=6;pointerEvents=1;points=[];fillColor=none;resizable=0;rotatable=0;perimeter=centerPerimeter;snapToPoint=1;startSize=0;html=1;" vertex="1" parent="1">
          <mxGeometry x="282.5" y="180" width="40" height="40" as="geometry" />
        </mxCell>
        <mxCell id="cS52obOLXvUobMIQ5ZyY-23" value="" style="endArrow=none;html=1;startSize=0;" edge="1" parent="1" target="cS52obOLXvUobMIQ5ZyY-22">
          <mxGeometry width="50" height="50" relative="1" as="geometry">
            <mxPoint x="300" y="200" as="sourcePoint" />
            <mxPoint x="580" y="200" as="targetPoint" />
          </mxGeometry>
        </mxCell>
        <mxCell id="cS52obOLXvUobMIQ5ZyY-24" value="" style="shape=waypoint;sketch=0;size=6;pointerEvents=1;points=[];fillColor=none;resizable=0;rotatable=0;perimeter=centerPerimeter;snapToPoint=1;startSize=0;html=1;" vertex="1" parent="1">
          <mxGeometry x="280" y="320" width="40" height="40" as="geometry" />
        </mxCell>
        <mxCell id="cS52obOLXvUobMIQ5ZyY-25" value="" style="shape=waypoint;sketch=0;size=6;pointerEvents=1;points=[];fillColor=none;resizable=0;rotatable=0;perimeter=centerPerimeter;snapToPoint=1;startSize=0;html=1;" vertex="1" parent="1">
          <mxGeometry x="380" y="340" width="40" height="40" as="geometry" />
        </mxCell>
        <mxCell id="cS52obOLXvUobMIQ5ZyY-26" value="" style="endArrow=none;html=1;startSize=0;" edge="1" parent="1" target="cS52obOLXvUobMIQ5ZyY-25">
          <mxGeometry width="50" height="50" relative="1" as="geometry">
            <mxPoint x="400" y="360" as="sourcePoint" />
            <mxPoint x="580" y="360" as="targetPoint" />
          </mxGeometry>
        </mxCell>
        <mxCell id="cS52obOLXvUobMIQ5ZyY-27" value="" style="shape=waypoint;sketch=0;size=6;pointerEvents=1;points=[];fillColor=none;resizable=0;rotatable=0;perimeter=centerPerimeter;snapToPoint=1;startSize=0;html=1;" vertex="1" parent="1">
          <mxGeometry x="490" y="670" width="40" height="40" as="geometry" />
        </mxCell>
        <mxCell id="cS52obOLXvUobMIQ5ZyY-28" value="" style="endArrow=none;html=1;startSize=0;" edge="1" parent="1" target="cS52obOLXvUobMIQ5ZyY-27">
          <mxGeometry width="50" height="50" relative="1" as="geometry">
            <mxPoint x="510" y="650" as="sourcePoint" />
            <mxPoint x="510" y="800" as="targetPoint" />
          </mxGeometry>
        </mxCell>
        <mxCell id="cS52obOLXvUobMIQ5ZyY-29" value="" style="shape=waypoint;sketch=0;size=6;pointerEvents=1;points=[];fillColor=none;resizable=0;rotatable=0;perimeter=centerPerimeter;snapToPoint=1;startSize=0;html=1;" vertex="1" parent="1">
          <mxGeometry x="490" y="710" width="40" height="40" as="geometry" />
        </mxCell>
      </root>
    </mxGraphModel>
  </diagram>
</mxfile>
